<svg xmlns="http://www.w3.org/2000/svg" width="99" height="100" viewBox="0 0 99 100" fill="none">
  <g filter="url(#filter0_d_1166_243)">
    <mask id="mask0_1166_243" style="mask-type:alpha" maskUnits="userSpaceOnUse" x="0" y="1" width="99" height="99">
      <path d="M98.0127 1.04358H0.0126953V99.0436H98.0127V1.04358Z" fill="#FED132"/>
    </mask>
    <g mask="url(#mask0_1166_243)">
      <path d="M44.7527 90.2989V91.2989H45.7527H54.3089H55.3089V90.2989V82.1667C59.5277 81.4193 63.1339 79.7522 66.0929 77.1455C69.3582 74.269 70.9238 70.1112 70.9238 64.8444C70.9238 60.5536 69.5811 56.7465 66.9018 53.4635C64.2106 50.1658 60.2893 47.8106 55.229 46.3438L55.2236 46.3423C49.9579 44.848 46.3709 43.4533 44.3626 42.1814C42.4867 40.9933 41.619 39.4449 41.619 37.4647C41.619 35.7039 42.2995 34.2493 43.7256 33.0403C45.1177 31.86 47.2382 31.192 50.2447 31.192C52.8244 31.192 54.7318 31.7361 56.0736 32.712C57.4477 33.7113 58.5574 35.2428 59.3618 37.388L59.7307 38.3718L60.6951 37.9548L68.6095 34.5323L69.4761 34.1576L69.1517 33.2709C68.0252 30.1918 66.2363 27.5732 63.7917 25.4294C61.4997 23.4195 58.6592 22.0989 55.3089 21.4401V13.2936V12.2936H54.3089H45.7527H44.7527V13.2936V21.4125C41.6904 21.9523 38.7397 23.4728 35.9041 25.9033C32.6482 28.6941 31.0629 32.5947 31.0629 37.4647C31.0629 41.5285 32.2734 45.0274 34.7246 47.8999C37.1922 50.7916 41.6198 53.1605 47.801 55.1017C50.6309 56.0215 52.9258 56.8857 54.6962 57.6928C56.4857 58.5086 57.6686 59.235 58.333 59.8541C59.6649 61.0952 60.3677 62.7905 60.3677 65.0583C60.3677 67.559 59.4772 69.2644 57.7751 70.3692C55.9359 71.5631 53.6568 72.1866 50.8864 72.1866C47.6417 72.1866 45.1264 71.3451 43.2441 69.7499C41.3229 68.1217 39.8224 65.7021 38.7927 62.4071L38.4689 61.3707L37.4626 61.7786L29.5481 64.9872L28.7119 65.3262L28.9635 66.1927C30.2862 70.7489 32.3851 74.3525 35.3047 76.9308C37.9911 79.3033 41.1463 80.954 44.7527 81.8874V90.2989Z" fill="#FED132" stroke="#14383D" stroke-width="2"/>
    </g>
  </g>
  <defs>
    <filter id="filter0_d_1166_243" x="27.5" y="11.2936" width="44.4238" height="85.0052" filterUnits="userSpaceOnUse" color-interpolation-filters="sRGB">
      <feFlood flood-opacity="0" result="BackgroundImageFix"/>
      <feColorMatrix in="SourceAlpha" type="matrix" values="0 0 0 0 0 0 0 0 0 0 0 0 0 0 0 0 0 0 127 0" result="hardAlpha"/>
      <feOffset dy="4"/>
      <feComposite in2="hardAlpha" operator="out"/>
      <feColorMatrix type="matrix" values="0 0 0 0 0.0784314 0 0 0 0 0.219608 0 0 0 0 0.239216 0 0 0 1 0"/>
      <feBlend mode="normal" in2="BackgroundImageFix" result="effect1_dropShadow_1166_243"/>
      <feBlend mode="normal" in="SourceGraphic" in2="effect1_dropShadow_1166_243" result="shape"/>
    </filter>
  </defs>
</svg>