<svg width="255" height="388" viewBox="0 0 255 388" fill="none" xmlns="http://www.w3.org/2000/svg">
<g filter="url(#filter0_d_1237_524)">
<mask id="path-1-inside-1_1237_524" fill="white">
<path fill-rule="evenodd" clip-rule="evenodd" d="M97.3252 41.0109C105.096 70.0106 87.8629 99.8248 58.8349 107.603C29.8068 115.381 -0.0242902 98.1774 -7.79473 69.1777C-15.5652 40.1781 1.66756 10.3639 30.6956 2.58582C59.7237 -5.19223 89.5548 12.0113 97.3252 41.0109ZM-58.7335 139.105C-87.7615 146.883 -117.593 129.68 -125.363 100.68C-133.133 71.6804 -115.901 41.8662 -86.8727 34.0882C-57.8446 26.3101 -28.0135 43.5136 -20.2431 72.5133C-12.4727 101.513 -29.7054 131.327 -58.7335 139.105ZM-27.2619 256.559C-56.29 264.337 -86.1211 247.133 -93.8915 218.133C-101.662 189.134 -84.4292 159.319 -55.4012 151.541C-26.3731 143.763 3.45799 160.967 11.2284 189.967C18.9989 218.966 1.76614 248.78 -27.2619 256.559ZM-211.46 249.636C-203.689 278.635 -173.858 295.839 -144.83 288.061C-115.802 280.283 -98.5694 250.469 -106.34 221.469C-114.11 192.469 -143.941 175.266 -172.969 183.044C-201.997 190.822 -219.23 220.636 -211.46 249.636ZM4.2096 374.012C-24.8185 381.79 -54.6496 364.586 -62.42 335.587C-70.1904 306.587 -52.9577 276.773 -23.9296 268.995C5.09842 261.217 34.9295 278.42 42.7 307.42C50.4704 336.42 33.2377 366.234 4.2096 374.012ZM90.3064 225.056C119.334 217.278 136.567 187.464 128.797 158.464C121.026 129.465 91.1952 112.261 62.1671 120.039C33.1391 127.817 15.9064 157.631 23.6768 186.631C31.4472 215.631 61.2783 232.834 90.3064 225.056ZM246.365 126.962C254.136 155.962 236.903 185.776 207.875 193.554C178.847 201.332 149.016 184.128 141.245 155.129C133.475 126.129 150.708 96.3148 179.736 88.5367C208.764 80.7587 238.595 97.9622 246.365 126.962ZM121.778 342.509C150.806 334.731 168.039 304.917 160.268 275.918C152.498 246.918 122.667 229.714 93.6387 237.492C64.6106 245.27 47.3779 275.085 55.1483 304.084C62.9188 333.084 92.7499 350.287 121.778 342.509Z"/>
</mask>
<path fill-rule="evenodd" clip-rule="evenodd" d="M97.3252 41.0109C105.096 70.0106 87.8629 99.8248 58.8349 107.603C29.8068 115.381 -0.0242902 98.1774 -7.79473 69.1777C-15.5652 40.1781 1.66756 10.3639 30.6956 2.58582C59.7237 -5.19223 89.5548 12.0113 97.3252 41.0109ZM-58.7335 139.105C-87.7615 146.883 -117.593 129.68 -125.363 100.68C-133.133 71.6804 -115.901 41.8662 -86.8727 34.0882C-57.8446 26.3101 -28.0135 43.5136 -20.2431 72.5133C-12.4727 101.513 -29.7054 131.327 -58.7335 139.105ZM-27.2619 256.559C-56.29 264.337 -86.1211 247.133 -93.8915 218.133C-101.662 189.134 -84.4292 159.319 -55.4012 151.541C-26.3731 143.763 3.45799 160.967 11.2284 189.967C18.9989 218.966 1.76614 248.78 -27.2619 256.559ZM-211.46 249.636C-203.689 278.635 -173.858 295.839 -144.83 288.061C-115.802 280.283 -98.5694 250.469 -106.34 221.469C-114.11 192.469 -143.941 175.266 -172.969 183.044C-201.997 190.822 -219.23 220.636 -211.46 249.636ZM4.2096 374.012C-24.8185 381.79 -54.6496 364.586 -62.42 335.587C-70.1904 306.587 -52.9577 276.773 -23.9296 268.995C5.09842 261.217 34.9295 278.42 42.7 307.42C50.4704 336.42 33.2377 366.234 4.2096 374.012ZM90.3064 225.056C119.334 217.278 136.567 187.464 128.797 158.464C121.026 129.465 91.1952 112.261 62.1671 120.039C33.1391 127.817 15.9064 157.631 23.6768 186.631C31.4472 215.631 61.2783 232.834 90.3064 225.056ZM246.365 126.962C254.136 155.962 236.903 185.776 207.875 193.554C178.847 201.332 149.016 184.128 141.245 155.129C133.475 126.129 150.708 96.3148 179.736 88.5367C208.764 80.7587 238.595 97.9622 246.365 126.962ZM121.778 342.509C150.806 334.731 168.039 304.917 160.268 275.918C152.498 246.918 122.667 229.714 93.6387 237.492C64.6106 245.27 47.3779 275.085 55.1483 304.084C62.9188 333.084 92.7499 350.287 121.778 342.509Z" fill="#FED132"/>
<path d="M58.3172 105.671C86.2801 98.1784 102.877 69.4595 95.3934 41.5286L99.2571 40.4933C107.314 70.5617 89.4457 101.471 59.3525 109.535L58.3172 105.671ZM-5.86287 68.6601C1.6212 96.5911 30.3543 113.164 58.3172 105.671L59.3525 109.535C29.2593 117.598 -1.66978 99.7638 -9.72658 69.6954L-5.86287 68.6601ZM31.2133 4.51767C3.25034 12.0103 -13.3469 40.7292 -5.86287 68.6601L-9.72658 69.6954C-17.7834 39.627 0.0847697 8.71742 30.178 0.65397L31.2133 4.51767ZM95.3934 41.5286C87.9093 13.5976 59.1762 -2.97497 31.2133 4.51767L30.178 0.65397C60.2712 -7.40949 91.2003 10.4249 99.2571 40.4933L95.3934 41.5286ZM-123.431 100.162C-115.947 128.093 -87.214 144.666 -59.2511 137.173L-58.2158 141.037C-88.309 149.101 -119.238 131.266 -127.295 101.198L-123.431 100.162ZM-86.3551 36.02C-114.318 43.5127 -130.915 72.2315 -123.431 100.162L-127.295 101.198C-135.352 71.1294 -117.484 40.2198 -87.3903 32.1563L-86.3551 36.02ZM-22.175 73.0309C-29.659 45.1 -58.3921 28.5274 -86.3551 36.02L-87.3903 32.1563C-57.2971 24.0929 -26.368 41.9273 -18.3113 71.9957L-22.175 73.0309ZM-59.2511 137.173C-31.2882 129.681 -14.6909 100.962 -22.175 73.0309L-18.3113 71.9957C-10.2545 102.064 -28.1226 132.974 -58.2158 141.037L-59.2511 137.173ZM-91.9597 217.616C-84.4756 245.547 -55.7425 262.119 -27.7796 254.627L-26.7443 258.49C-56.8375 266.554 -87.7666 248.719 -95.8234 218.651L-91.9597 217.616ZM-54.8835 153.473C-82.8465 160.966 -99.4437 189.685 -91.9597 217.616L-95.8234 218.651C-103.88 188.583 -86.012 157.673 -55.9188 149.61L-54.8835 153.473ZM9.29657 190.484C1.8125 162.553 -26.9206 145.981 -54.8835 153.473L-55.9188 149.61C-25.8256 141.546 5.10348 159.381 13.1603 189.449L9.29657 190.484ZM-27.7796 254.627C0.183357 247.134 16.7806 218.415 9.29657 190.484L13.1603 189.449C21.2171 219.517 3.34893 250.427 -26.7443 258.49L-27.7796 254.627ZM-144.313 289.993C-174.406 298.056 -205.335 280.222 -213.392 250.153L-209.528 249.118C-202.044 277.049 -173.311 293.622 -145.348 286.129L-144.313 289.993ZM-104.408 220.951C-96.3511 251.02 -114.219 281.929 -144.313 289.993L-145.348 286.129C-117.385 278.636 -100.788 249.918 -108.272 221.987L-104.408 220.951ZM-173.487 181.112C-143.394 173.048 -112.465 190.883 -104.408 220.951L-108.272 221.987C-115.756 194.056 -144.489 177.483 -172.452 184.976L-173.487 181.112ZM-213.392 250.153C-221.448 220.085 -203.58 189.175 -173.487 181.112L-172.452 184.976C-200.415 192.468 -217.012 221.187 -209.528 249.118L-213.392 250.153ZM-60.4881 335.069C-53.0041 363 -24.271 379.573 3.69196 372.08L4.72724 375.944C-25.366 384.007 -56.2951 366.173 -64.3518 336.104L-60.4881 335.069ZM-23.412 270.927C-51.3749 278.419 -67.9722 307.138 -60.4881 335.069L-64.3518 336.104C-72.4086 306.036 -54.5405 275.126 -24.4473 267.063L-23.412 270.927ZM40.7681 307.938C33.284 280.007 4.55091 263.434 -23.412 270.927L-24.4473 267.063C5.64593 258.999 36.575 276.834 44.6318 306.902L40.7681 307.938ZM3.69196 372.08C31.6549 364.587 48.2522 335.868 40.7681 307.938L44.6318 306.902C52.6886 336.971 34.8205 367.88 4.72724 375.944L3.69196 372.08ZM130.729 157.947C138.785 188.015 120.917 218.925 90.824 226.988L89.7887 223.124C117.752 215.632 134.349 186.913 126.865 158.982L130.729 157.947ZM61.6495 118.107C91.7427 110.044 122.672 127.878 130.729 157.947L126.865 158.982C119.381 131.051 90.6477 114.478 62.6848 121.971L61.6495 118.107ZM21.745 187.149C13.6882 157.08 31.5563 126.171 61.6495 118.107L62.6848 121.971C34.7219 129.464 18.1246 158.182 25.6087 186.113L21.745 187.149ZM90.824 226.988C60.7308 235.051 29.8017 217.217 21.745 187.149L25.6087 186.113C33.0927 214.044 61.8258 230.617 89.7887 223.124L90.824 226.988ZM207.357 191.622C235.32 184.129 251.918 155.41 244.434 127.479L248.297 126.444C256.354 156.513 238.486 187.422 208.393 195.486L207.357 191.622ZM143.177 154.611C150.661 182.542 179.394 199.115 207.357 191.622L208.393 195.486C178.299 203.549 147.37 185.715 139.314 155.646L143.177 154.611ZM180.253 90.4686C152.29 97.9612 135.693 126.68 143.177 154.611L139.314 155.646C131.257 125.578 149.125 94.6683 179.218 86.6049L180.253 90.4686ZM244.434 127.479C236.949 99.5486 208.216 82.9759 180.253 90.4686L179.218 86.6049C209.311 78.5414 240.24 96.3758 248.297 126.444L244.434 127.479ZM162.2 275.4C170.257 305.468 152.389 336.378 122.296 344.441L121.26 340.578C149.223 333.085 165.82 304.366 158.336 276.435L162.2 275.4ZM93.121 235.561C123.214 227.497 154.143 245.331 162.2 275.4L158.336 276.435C150.852 248.504 122.119 231.932 94.1563 239.424L93.121 235.561ZM53.2165 304.602C45.1597 274.534 63.0278 243.624 93.121 235.561L94.1563 239.424C66.1934 246.917 49.5961 275.636 57.0802 303.567L53.2165 304.602ZM122.296 344.441C92.2023 352.505 61.2733 334.67 53.2165 304.602L57.0802 303.567C64.5643 331.498 93.2974 348.07 121.26 340.578L122.296 344.441Z" fill="#14383D" mask="url(#path-1-inside-1_1237_524)"/>
</g>
<defs>
<filter id="filter0_d_1237_524" x="-213.324" y="0.716309" width="467.863" height="386.734" filterUnits="userSpaceOnUse" color-interpolation-filters="sRGB">
<feFlood flood-opacity="0" result="BackgroundImageFix"/>
<feColorMatrix in="SourceAlpha" type="matrix" values="0 0 0 0 0 0 0 0 0 0 0 0 0 0 0 0 0 0 127 0" result="hardAlpha"/>
<feOffset dx="6.31051" dy="11.5693"/>
<feComposite in2="hardAlpha" operator="out"/>
<feColorMatrix type="matrix" values="0 0 0 0 0.0784314 0 0 0 0 0.219608 0 0 0 0 0.239216 0 0 0 1 0"/>
<feBlend mode="normal" in2="BackgroundImageFix" result="effect1_dropShadow_1237_524"/>
<feBlend mode="normal" in="SourceGraphic" in2="effect1_dropShadow_1237_524" result="shape"/>
</filter>
</defs>
</svg>