<svg xmlns="http://www.w3.org/2000/svg" width="196" height="245" viewBox="0 0 196 245" fill="none">
  <g filter="url(#filter0_d_1005_461)">
    <circle cx="122.086" cy="122.443" r="98.5472" transform="rotate(15 122.086 122.443)" fill="#6BC73E" stroke="#14383D" stroke-width="2.27"/>
    <circle cx="153.961" cy="83.4176" r="20.4201" transform="rotate(15 153.961 83.4176)" fill="white"/>
    <circle cx="142.139" cy="127.538" r="20.4201" transform="rotate(15 142.139 127.538)" fill="white"/>
    <ellipse cx="186.259" cy="139.36" rx="20.4201" ry="20.4201" transform="rotate(15 186.259 139.36)" fill="white"/>
    <ellipse cx="130.317" cy="171.658" rx="20.4201" ry="20.4201" transform="rotate(15 130.317 171.658)" fill="white"/>
    <ellipse cx="20.4201" cy="20.4201" rx="20.4201" ry="20.4201" transform="matrix(-0.965926 -0.258819 -0.258819 0.965926 134.851 57.1565)" fill="white"/>
    <ellipse cx="20.4201" cy="20.4201" rx="20.4201" ry="20.4201" transform="matrix(-0.965926 -0.258819 -0.258819 0.965926 123.028 101.277)" fill="white"/>
    <circle cx="20.4201" cy="20.4201" r="20.4201" transform="matrix(-0.965926 -0.258819 -0.258819 0.965926 78.9082 89.4547)" fill="white"/>
    <ellipse cx="20.4201" cy="20.4201" rx="20.4201" ry="20.4201" transform="matrix(-0.965926 -0.258819 -0.258819 0.965926 111.206 145.397)" fill="white"/>
  </g>
  <defs>
    <filter id="filter0_d_1005_461" x="0" y="0.3573" width="250.171" height="255.171" filterUnits="userSpaceOnUse" color-interpolation-filters="sRGB">
      <feFlood flood-opacity="0" result="BackgroundImageFix"/>
      <feColorMatrix in="SourceAlpha" type="matrix" values="0 0 0 0 0 0 0 0 0 0 0 0 0 0 0 0 0 0 127 0" result="hardAlpha"/>
      <feOffset dx="6" dy="11"/>
      <feComposite in2="hardAlpha" operator="out"/>
      <feColorMatrix type="matrix" values="0 0 0 0 0.0784314 0 0 0 0 0.219608 0 0 0 0 0.239216 0 0 0 1 0"/>
      <feBlend mode="normal" in2="BackgroundImageFix" result="effect1_dropShadow_1005_461"/>
      <feBlend mode="normal" in="SourceGraphic" in2="effect1_dropShadow_1005_461" result="shape"/>
    </filter>
  </defs>
</svg>