<svg xmlns="http://www.w3.org/2000/svg" width="65" height="57" viewBox="0 0 65 57" fill="none">
  <path d="M38.076 56.833V37.453C38.076 27.421 40.356 19.213 44.916 12.829C49.476 6.29304 56.164 2.03704 64.98 0.0610352V10.321C60.116 11.537 56.544 13.817 54.264 17.161C51.984 20.353 50.54 24.457 49.932 29.473H60.42V56.833H38.076ZM0 56.833V37.453C0 27.421 2.204 19.213 6.612 12.829C11.172 6.29304 17.86 2.03704 26.676 0.0610352V10.321C21.964 11.537 18.392 13.817 15.96 17.161C13.68 20.353 12.312 24.457 11.856 29.473H22.116V56.833H0Z" fill="#8952C7"/>
</svg>