<svg xmlns="http://www.w3.org/2000/svg" width="98" height="99" viewBox="0 0 98 99" fill="none">
  <g clip-path="url(#clip0_1206_384)">
    <mask id="mask0_1206_384" style="mask-type:alpha" maskUnits="userSpaceOnUse" x="-1" y="-1" width="100" height="101">
      <path d="M98.5 -0.438965H-0.5V98.561H98.5V-0.438965Z" fill="#D9D9D9" stroke="#FED132"/>
    </mask>
    <g mask="url(#mask0_1206_384)">
      <g filter="url(#filter0_d_1206_384)">
        <path d="M15.6287 81.9052C13.5308 81.9052 11.7349 81.1582 10.2409 79.6643C8.74698 78.1703 8 76.3744 8 74.2765V24.6897C8 22.5918 8.74698 20.7959 10.2409 19.3019C11.7349 17.808 13.5308 17.061 15.6287 17.061H84.2873C86.3852 17.061 88.1811 17.808 89.6751 19.3019C91.169 20.7959 91.916 22.5918 91.916 24.6897V74.2765C91.916 76.3744 91.169 78.1703 89.6751 79.6643C88.1811 81.1582 86.3852 81.9052 84.2873 81.9052H15.6287ZM34.7006 66.6477H65.2155V62.8334H34.7006V66.6477ZM23.2575 55.2046H30.8862V47.5759H23.2575V55.2046ZM38.5149 55.2046H46.1436V47.5759H38.5149V55.2046ZM53.7724 55.2046H61.4011V47.5759H53.7724V55.2046ZM69.0298 55.2046H76.6586V47.5759H69.0298V55.2046ZM23.2575 39.9472H30.8862V32.3185H23.2575V39.9472ZM38.5149 39.9472H46.1436V32.3185H38.5149V39.9472ZM53.7724 39.9472H61.4011V32.3185H53.7724V39.9472ZM69.0298 39.9472H76.6586V32.3185H69.0298V39.9472Z" fill="#FED132"/>
        <path d="M34.2006 66.6477V67.1477H34.7006H65.2155H65.7155V66.6477V62.8334V62.3334H65.2155H34.7006H34.2006V62.8334V66.6477ZM22.7575 55.2046V55.7046H23.2575H30.8862H31.3862V55.2046V47.5759V47.0759H30.8862H23.2575H22.7575V47.5759V55.2046ZM38.0149 55.2046V55.7046H38.5149H46.1436H46.6436V55.2046V47.5759V47.0759H46.1436H38.5149H38.0149V47.5759V55.2046ZM53.2724 55.2046V55.7046H53.7724H61.4011H61.9011V55.2046V47.5759V47.0759H61.4011H53.7724H53.2724V47.5759V55.2046ZM68.5298 55.2046V55.7046H69.0298H76.6586H77.1586V55.2046V47.5759V47.0759H76.6586H69.0298H68.5298V47.5759V55.2046ZM22.7575 39.9472V40.4472H23.2575H30.8862H31.3862V39.9472V32.3185V31.8185H30.8862H23.2575H22.7575V32.3185V39.9472ZM38.0149 39.9472V40.4472H38.5149H46.1436H46.6436V39.9472V32.3185V31.8185H46.1436H38.5149H38.0149V32.3185V39.9472ZM53.2724 39.9472V40.4472H53.7724H61.4011H61.9011V39.9472V32.3185V31.8185H61.4011H53.7724H53.2724V32.3185V39.9472ZM68.5298 39.9472V40.4472H69.0298H76.6586H77.1586V39.9472V32.3185V31.8185H76.6586H69.0298H68.5298V32.3185V39.9472ZM15.6287 81.4052C13.6645 81.4052 11.9954 80.7116 10.5945 79.3107C9.19355 77.9098 8.5 76.2407 8.5 74.2765V24.6897C8.5 22.7255 9.19355 21.0564 10.5945 19.6555C11.9954 18.2546 13.6645 17.561 15.6287 17.561H84.2873C86.2515 17.561 87.9206 18.2546 89.3215 19.6555C90.7225 21.0564 91.416 22.7255 91.416 24.6897V74.2765C91.416 76.2407 90.7225 77.9098 89.3215 79.3107C87.9206 80.7116 86.2515 81.4052 84.2873 81.4052H15.6287Z" stroke="#14383D"/>
      </g>
    </g>
  </g>
  <defs>
    <filter id="filter0_d_1206_384" x="8" y="17.061" width="83.916" height="68.8442" filterUnits="userSpaceOnUse" color-interpolation-filters="sRGB">
      <feFlood flood-opacity="0" result="BackgroundImageFix"/>
      <feColorMatrix in="SourceAlpha" type="matrix" values="0 0 0 0 0 0 0 0 0 0 0 0 0 0 0 0 0 0 127 0" result="hardAlpha"/>
      <feOffset dy="4"/>
      <feComposite in2="hardAlpha" operator="out"/>
      <feColorMatrix type="matrix" values="0 0 0 0 0.0784314 0 0 0 0 0.219608 0 0 0 0 0.239216 0 0 0 1 0"/>
      <feBlend mode="normal" in2="BackgroundImageFix" result="effect1_dropShadow_1206_384"/>
      <feBlend mode="normal" in="SourceGraphic" in2="effect1_dropShadow_1206_384" result="shape"/>
    </filter>
    <clipPath id="clip0_1206_384">
      <rect width="98" height="98" fill="white" transform="translate(0 0.0610352)"/>
    </clipPath>
  </defs>
</svg>