<svg width="261" height="353" viewBox="0 0 261 353" fill="none" xmlns="http://www.w3.org/2000/svg">
<g filter="url(#filter0_d_1005_495)">
<mask id="path-1-inside-1_1005_495" fill="white">
<path fill-rule="evenodd" clip-rule="evenodd" d="M249.895 62.7408C252.106 54.4877 260.589 49.5899 268.842 51.8013L274.073 53.2028C274.707 53.3727 275.321 53.5796 275.914 53.8207C276.545 53.9083 277.177 54.0358 277.808 54.2049L297.235 59.4103C305.488 61.6217 310.386 70.1049 308.174 78.358L306.773 83.5883C304.561 91.8414 296.078 96.7392 287.825 94.5277L279.606 92.3255L252.157 194.769C254.004 209.063 253.146 223.948 249.185 238.733C232.931 299.393 170.579 335.392 109.919 319.138C49.2584 302.884 13.2598 240.533 29.5137 179.872C45.7676 119.212 108.119 83.2134 168.779 99.4673C193.775 106.165 214.583 120.689 229.274 139.698L249.895 62.7408Z"/>
</mask>
<path fill-rule="evenodd" clip-rule="evenodd" d="M249.895 62.7408C252.106 54.4877 260.589 49.5899 268.842 51.8013L274.073 53.2028C274.707 53.3727 275.321 53.5796 275.914 53.8207C276.545 53.9083 277.177 54.0358 277.808 54.2049L297.235 59.4103C305.488 61.6217 310.386 70.1049 308.174 78.358L306.773 83.5883C304.561 91.8414 296.078 96.7392 287.825 94.5277L279.606 92.3255L252.157 194.769C254.004 209.063 253.146 223.948 249.185 238.733C232.931 299.393 170.579 335.392 109.919 319.138C49.2584 302.884 13.2598 240.533 29.5137 179.872C45.7676 119.212 108.119 83.2134 168.779 99.4673C193.775 106.165 214.583 120.689 229.274 139.698L249.895 62.7408Z" fill="#4851C7"/>
<path d="M275.914 53.8207L275.059 55.9235L275.321 56.0301L275.602 56.0691L275.914 53.8207ZM277.808 54.2049L277.221 56.3976L277.808 54.2049ZM297.235 59.4103L297.822 57.2176L297.235 59.4103ZM279.606 92.3255L280.194 90.1328L278.001 89.5453L277.413 91.7379L279.606 92.3255ZM252.157 194.769L249.964 194.181L249.848 194.614L249.905 195.059L252.157 194.769ZM229.274 139.698L227.478 141.086L230.28 144.712L231.467 140.285L229.274 139.698ZM269.43 49.6087C259.966 47.0728 250.238 52.6892 247.702 62.1533L252.087 63.3283C253.974 56.2861 261.213 52.107 268.255 53.994L269.43 49.6087ZM274.66 51.0101L269.43 49.6087L268.255 53.994L273.485 55.3954L274.66 51.0101ZM276.769 51.7178C276.089 51.4414 275.385 51.2045 274.66 51.0101L273.485 55.3954C274.028 55.5409 274.553 55.7178 275.059 55.9235L276.769 51.7178ZM275.602 56.0691C276.14 56.1439 276.68 56.2528 277.221 56.3976L278.396 52.0123C277.674 51.8189 276.95 51.6728 276.226 51.5723L275.602 56.0691ZM277.221 56.3976L296.647 61.6029L297.822 57.2176L278.396 52.0123L277.221 56.3976ZM296.647 61.6029C303.689 63.4899 307.869 70.7283 305.982 77.7705L310.367 78.9455C312.903 69.4814 307.286 59.7535 297.822 57.2176L296.647 61.6029ZM305.982 77.7705L304.58 83.0007L308.965 84.1758L310.367 78.9455L305.982 77.7705ZM304.58 83.0007C302.693 90.0429 295.455 94.222 288.413 92.3351L287.238 96.7204C296.702 99.2563 306.43 93.6399 308.965 84.1758L304.58 83.0007ZM288.413 92.3351L280.194 90.1328L279.019 94.5181L287.238 96.7204L288.413 92.3351ZM254.349 195.356L281.799 92.913L277.413 91.7379L249.964 194.181L254.349 195.356ZM251.377 239.321C255.417 224.244 256.292 209.06 254.408 194.478L249.905 195.059C251.715 209.065 250.876 223.652 246.992 238.145L251.377 239.321ZM109.331 321.331C171.203 337.909 234.799 301.192 251.377 239.321L246.992 238.145C231.062 297.595 169.956 332.875 110.506 316.945L109.331 321.331ZM27.3211 179.285C10.7427 241.156 47.4599 304.752 109.331 321.331L110.506 316.945C51.0569 301.016 15.7769 239.909 31.7064 180.46L27.3211 179.285ZM169.367 97.2746C107.496 80.6962 43.8995 117.413 27.3211 179.285L31.7064 180.46C47.6358 121.01 108.742 85.7305 168.192 101.66L169.367 97.2746ZM231.07 138.31C216.086 118.922 194.859 104.105 169.367 97.2746L168.192 101.66C192.691 108.224 213.081 122.457 227.478 141.086L231.07 138.31ZM247.702 62.1533L227.081 139.11L231.467 140.285L252.087 63.3283L247.702 62.1533Z" fill="#14383D" mask="url(#path-1-inside-1_1005_495)"/>
</g>
<path fill-rule="evenodd" clip-rule="evenodd" d="M152.294 192.75L160.434 194.931C158.427 212.522 169.539 229.404 187.156 234.124C206.551 239.321 226.487 227.811 231.683 208.416L232.284 206.175C237.481 186.78 225.971 166.845 206.576 161.648C188.443 156.789 169.838 166.534 163.246 183.672L155.297 181.542C154.607 174.81 149.752 168.845 142.69 166.953C135.628 165.061 128.441 167.799 124.477 173.284L114.287 170.554C117.148 152.416 105.907 134.674 87.7745 129.816C68.3796 124.619 48.4442 136.129 43.2473 155.523L42.6467 157.765C37.4499 177.16 48.9596 197.095 68.3545 202.292C85.9722 207.013 104.036 197.948 111.094 181.71L121.474 184.492C122.164 191.224 127.019 197.189 134.081 199.081C141.143 200.974 148.33 198.235 152.294 192.75ZM157.032 256.884C151.89 276.073 132 287.415 112.605 282.218C93.2101 277.022 81.6555 257.253 86.797 238.065C91.9386 218.876 111.829 207.534 131.224 212.731C150.619 217.928 162.173 237.696 157.032 256.884Z" fill="white"/>
<circle cx="76.029" cy="158.701" r="20.8855" transform="rotate(15 76.029 158.701)" fill="#14383D"/>
<circle cx="191.843" cy="189.733" r="20.8855" transform="rotate(15 191.843 189.733)" fill="#14383D"/>
<path d="M140.455 244.034C139.877 246.193 138.879 248.216 137.518 249.989C136.158 251.762 134.461 253.25 132.526 254.367C130.591 255.485 128.454 256.21 126.238 256.502C124.023 256.794 121.771 256.646 119.613 256.068C117.454 255.489 115.43 254.491 113.657 253.131C111.884 251.77 110.397 250.074 109.279 248.138C108.162 246.203 107.437 244.067 107.145 241.851C106.853 239.635 107.001 237.384 107.579 235.225" stroke="#14383D" stroke-width="10.056"/>
<circle cx="5.24159" cy="5.24159" r="5.24159" transform="matrix(-1 0 0 1 194.768 172.473)" fill="white"/>
<circle cx="5.24159" cy="5.24159" r="5.24159" transform="matrix(-1 0 0 1 77.3555 141.024)" fill="white"/>
<defs>
<filter id="filter0_d_1005_495" x="25.6113" y="51.2703" width="287.735" height="280.279" filterUnits="userSpaceOnUse" color-interpolation-filters="sRGB">
<feFlood flood-opacity="0" result="BackgroundImageFix"/>
<feColorMatrix in="SourceAlpha" type="matrix" values="0 0 0 0 0 0 0 0 0 0 0 0 0 0 0 0 0 0 127 0" result="hardAlpha"/>
<feOffset dx="4.64122" dy="8.50891"/>
<feComposite in2="hardAlpha" operator="out"/>
<feColorMatrix type="matrix" values="0 0 0 0 0.0784314 0 0 0 0 0.219608 0 0 0 0 0.239216 0 0 0 1 0"/>
<feBlend mode="normal" in2="BackgroundImageFix" result="effect1_dropShadow_1005_495"/>
<feBlend mode="normal" in="SourceGraphic" in2="effect1_dropShadow_1005_495" result="shape"/>
</filter>
</defs>
</svg>