<svg xmlns="http://www.w3.org/2000/svg" width="90" height="92" viewBox="0 0 90 92" fill="none">
  <g filter="url(#filter0_d_1206_422)">
    <mask id="mask0_1206_422" style="mask-type:alpha" maskUnits="userSpaceOnUse" x="0" y="0" width="90" height="91">
      <path d="M90 0.12207H0V90.1221H90V0.12207Z" fill="#D9D9D9"/>
    </mask>
    <g mask="url(#mask0_1206_422)">
      <path d="M82.6734 62.4871C81.2714 62.4871 80.1349 61.3506 80.1349 59.9487V43.9298C80.1349 40.2815 76.2313 37.9622 73.0272 39.7066L46.4653 54.1681C45.708 54.5804 44.793 54.5801 44.036 54.1671L10.4558 35.8507C8.69183 34.8885 8.69183 32.3557 10.4558 31.3936L44.0343 13.078C44.792 12.6648 45.7078 12.6648 46.4654 13.078L84.042 33.5743C84.8575 34.0191 85.3649 34.8739 85.3649 35.8028V59.9487C85.3649 61.3506 84.2284 62.4871 82.8264 62.4871H82.6734ZM46.461 76.6732C45.7057 77.0833 44.7941 77.0833 44.0388 76.6732L21.4623 64.4174C20.6443 63.9733 20.1349 63.1172 20.1349 62.1865V51.7961C20.1349 49.8715 22.193 48.647 23.8845 49.5652L42.9558 59.9182C44.3866 60.6949 46.1132 60.6949 47.544 59.9182L66.6154 49.5652C68.3068 48.647 70.3649 49.8715 70.3649 51.7961V62.1865C70.3649 63.1172 69.8555 63.9733 69.0375 64.4174L46.461 76.6732Z" fill="#FED132" stroke="#14383D" stroke-width="2.27" stroke-linejoin="round"/>
    </g>
  </g>
  <defs>
    <filter id="filter0_d_1206_422" x="7.99805" y="11.6331" width="81.502" height="71.4827" filterUnits="userSpaceOnUse" color-interpolation-filters="sRGB">
      <feFlood flood-opacity="0" result="BackgroundImageFix"/>
      <feColorMatrix in="SourceAlpha" type="matrix" values="0 0 0 0 0 0 0 0 0 0 0 0 0 0 0 0 0 0 127 0" result="hardAlpha"/>
      <feOffset dx="3" dy="5"/>
      <feComposite in2="hardAlpha" operator="out"/>
      <feColorMatrix type="matrix" values="0 0 0 0 0.0784314 0 0 0 0 0.219608 0 0 0 0 0.239216 0 0 0 1 0"/>
      <feBlend mode="normal" in2="BackgroundImageFix" result="effect1_dropShadow_1206_422"/>
      <feBlend mode="normal" in="SourceGraphic" in2="effect1_dropShadow_1206_422" result="shape"/>
    </filter>
  </defs>
</svg>