<svg xmlns="http://www.w3.org/2000/svg" width="65" height="32" viewBox="0 0 65 32" fill="none">
  <path d="M4.96523 12.7607C4.30389 12.7607 3.71544 12.341 3.50013 11.7157L1.25262 5.18833C0.977244 4.38856 1.5714 3.55558 2.41725 3.55558C2.94673 3.55558 3.41698 3.89397 3.58518 4.39603L5.38421 9.76587C5.45482 9.97663 5.29549 10.1938 5.07325 10.1897C4.85134 10.1856 4.70017 9.96325 4.77793 9.75537L6.71347 4.58076C6.94409 3.96421 7.5332 3.55558 8.19147 3.55558C8.85103 3.55558 9.44102 3.96579 9.67071 4.58406L11.5919 9.75552C11.6692 9.96354 11.5179 10.1856 11.296 10.1897C11.0735 10.1938 10.914 9.97637 10.9847 9.76536L12.782 4.40049C12.9511 3.89577 13.4239 3.55558 13.9561 3.55558C14.8073 3.55558 15.4047 4.39454 15.1263 5.19889L12.8696 11.7183C12.6536 12.3422 12.0659 12.7607 11.4056 12.7607C10.7525 12.7607 10.1695 12.351 9.94814 11.7365L7.90282 6.05807C7.83059 5.85756 7.97917 5.64612 8.19229 5.64612C8.40568 5.64612 8.55428 5.85806 8.48154 6.05867L6.42197 11.7393C6.19969 12.3524 5.61736 12.7607 4.96523 12.7607Z" fill="#8952C7"/>
  <path d="M21.2139 12.963C20.3035 12.963 19.4718 12.7551 18.7187 12.3392C17.9769 11.9234 17.3812 11.3558 16.9316 10.6365C16.4933 9.90588 16.2741 9.07978 16.2741 8.15815C16.2741 7.22527 16.4933 6.39917 16.9316 5.67984C17.3812 4.96052 17.9769 4.39292 18.7187 3.97706C19.4718 3.5612 20.3035 3.35327 21.2139 3.35327C22.1243 3.35327 22.9504 3.5612 23.6922 3.97706C24.434 4.39292 25.0241 4.96052 25.4624 5.67984C25.912 6.39917 26.1368 7.22527 26.1368 8.15815C26.1368 9.07978 25.912 9.90588 25.4624 10.6365C25.0241 11.3558 24.434 11.9234 23.6922 12.3392C22.9504 12.7551 22.1243 12.963 21.2139 12.963ZM21.2139 10.687C21.6747 10.687 22.0737 10.5803 22.4109 10.3667C22.7593 10.1532 23.0291 9.85531 23.2201 9.47316C23.4224 9.09102 23.5236 8.65268 23.5236 8.15815C23.5236 7.66361 23.4224 7.23089 23.2201 6.85999C23.0291 6.47785 22.7593 6.18 22.4109 5.96645C22.0737 5.74166 21.6747 5.62927 21.2139 5.62927C20.7531 5.62927 20.3484 5.74166 20 5.96645C19.6516 6.18 19.3762 6.47785 19.1739 6.85999C18.9828 7.23089 18.8873 7.66361 18.8873 8.15815C18.8873 8.65268 18.9828 9.09102 19.1739 9.47316C19.3762 9.85531 19.6516 10.1532 20 10.3667C20.3484 10.5803 20.7531 10.687 21.2139 10.687Z" fill="#8952C7"/>
  <path d="M28.891 12.7607C28.1927 12.7607 27.6266 12.1946 27.6266 11.4963V4.73573C27.6266 4.08395 28.1549 3.55558 28.8067 3.55558H29.7326C29.873 3.55558 29.9869 3.6694 29.9869 3.8098V4.97343C29.9869 5.04761 29.8829 5.06448 29.8594 4.99411C29.8546 4.97966 29.855 4.96392 29.8606 4.94977C30.0747 4.41024 30.4146 4.01295 30.8804 3.75789C31.3637 3.48815 31.9257 3.35327 32.5663 3.35327C33.2632 3.35327 33.8701 3.49939 34.3871 3.79161C34.9154 4.08384 35.3256 4.49408 35.6178 5.02233C35.9101 5.53935 36.0562 6.14628 36.0562 6.84313V11.4963C36.0562 12.1946 35.4901 12.7607 34.7917 12.7607C34.0934 12.7607 33.5273 12.1946 33.5273 11.4963V7.38262C33.5273 7.02296 33.4542 6.71387 33.3081 6.45537C33.1733 6.19686 32.9766 5.99455 32.7181 5.84844C32.4708 5.70232 32.1786 5.62927 31.8414 5.62927C31.5154 5.62927 31.2232 5.70232 30.9647 5.84844C30.7062 5.99455 30.5039 6.19686 30.3578 6.45537C30.2229 6.71387 30.1555 7.02296 30.1555 7.38262V11.4963C30.1555 12.1946 29.5893 12.7607 28.891 12.7607Z" fill="#8952C7"/>
  <path d="M42.0519 12.963C41.1527 12.963 40.3491 12.7495 39.641 12.3224C38.9329 11.8953 38.3709 11.3164 37.9551 10.5859C37.5505 9.85531 37.3481 9.04607 37.3481 8.15815C37.3481 7.25899 37.5561 6.44975 37.9719 5.73042C38.3878 4.99986 38.9498 4.42102 39.6579 3.99392C40.3659 3.56682 41.1583 3.35327 42.035 3.35327C42.7094 3.35327 43.3051 3.48253 43.8221 3.74103C44.3107 3.96973 44.7031 4.28977 44.9994 4.70114C45.0427 4.76132 45.0394 4.84262 44.9943 4.90147C44.893 5.03357 44.6819 4.96195 44.6819 4.7955V1.26273C44.6819 0.564399 45.248 -0.00170898 45.9463 -0.00170898C46.6447 -0.00170898 47.2108 0.5644 47.2108 1.26273V11.5806C47.2108 12.2323 46.6824 12.7607 46.0306 12.7607H45.1492C44.9842 12.7607 44.8505 12.627 44.8505 12.462V11.5856C44.8505 11.4672 45.012 11.4324 45.0607 11.5404C45.0767 11.5757 45.073 11.617 45.0501 11.6483C44.7391 12.073 44.3242 12.3988 43.8052 12.6258C43.2657 12.8506 42.6813 12.963 42.0519 12.963ZM42.3553 10.687C42.8161 10.687 43.2208 10.5803 43.5692 10.3667C43.9176 10.1532 44.1874 9.85531 44.3784 9.47316C44.5807 9.09102 44.6819 8.65268 44.6819 8.15815C44.6819 7.66361 44.5807 7.22527 44.3784 6.84313C44.1874 6.46099 43.9176 6.16314 43.5692 5.94959C43.2208 5.73604 42.8161 5.62927 42.3553 5.62927C41.8945 5.62927 41.4786 5.74166 41.1077 5.96645C40.7481 6.18 40.4671 6.47785 40.2648 6.85999C40.0625 7.23089 39.9613 7.66361 39.9613 8.15815C39.9613 8.65268 40.0625 9.09102 40.2648 9.47316C40.4671 9.85531 40.7481 10.1532 41.1077 10.3667C41.4786 10.5803 41.8945 10.687 42.3553 10.687Z" fill="#8952C7"/>
  <path d="M53.4967 12.963C52.5189 12.963 51.6703 12.7495 50.951 12.3224C50.2317 11.884 49.6753 11.2996 49.282 10.569C48.8886 9.83845 48.6919 9.02921 48.6919 8.14129C48.6919 7.21965 48.8942 6.39917 49.2988 5.67984C49.7147 4.96052 50.271 4.39292 50.9679 3.97706C51.6647 3.5612 52.4515 3.35327 53.3282 3.35327C54.0587 3.35327 54.705 3.47129 55.267 3.70732C55.8289 3.93211 56.301 4.25243 56.6831 4.66829C57.0765 5.08415 57.3744 5.56745 57.5767 6.11818C57.779 6.65768 57.8801 7.24775 57.8801 7.8884C57.8801 8.06823 57.8689 8.24806 57.8464 8.42789C57.8285 8.69616 57.5832 8.86623 57.3143 8.86623H51.794C51.2819 8.86623 50.8667 8.45109 50.8667 7.93898C50.8667 7.42687 51.2819 7.01172 51.794 7.01172H55.5407C55.79 7.01172 55.8942 7.33027 55.6931 7.47755C55.5001 7.61887 55.2159 7.43854 55.2121 7.1994C55.2087 6.98819 55.1765 6.79075 55.1152 6.6071C54.9916 6.22496 54.7724 5.92711 54.4577 5.71356C54.1543 5.48877 53.7777 5.37638 53.3282 5.37638C52.8898 5.37638 52.5133 5.48315 52.1986 5.6967C51.8839 5.91025 51.6479 6.22496 51.4905 6.64082C51.4337 6.79095 51.3893 6.9528 51.3574 7.12637C51.2328 7.80444 51.204 8.51861 51.3759 9.18626C51.4061 9.3034 51.4443 9.41589 51.4905 9.52374C51.6591 9.91712 51.9176 10.2262 52.266 10.451C52.6145 10.6645 53.0359 10.7713 53.5305 10.7713C53.98 10.7713 54.3622 10.6814 54.6769 10.5016C55.2078 10.2087 55.8587 9.96078 56.4064 10.2209L56.4406 10.2372C57.013 10.509 57.2875 11.2025 56.851 11.6618C56.7725 11.7444 56.6884 11.8241 56.5988 11.9009C56.2167 12.2381 55.7615 12.5022 55.2333 12.6933C54.705 12.8731 54.1262 12.963 53.4967 12.963Z" fill="#8952C7"/>
  <path d="M60.6337 12.7607C59.9354 12.7607 59.3693 12.1946 59.3693 11.4963V4.73573C59.3693 4.08395 59.8977 3.55558 60.5494 3.55558H61.292C61.5337 3.55558 61.7296 3.7515 61.7296 3.99317V5.4338C61.7296 5.51901 61.6154 5.54722 61.5757 5.47182C61.5662 5.4538 61.5638 5.43274 61.5691 5.41308C61.7721 4.65447 62.101 4.14208 62.5557 3.87591C63.0277 3.59492 63.5841 3.45443 64.2247 3.45443C64.5227 3.45443 64.7642 3.69597 64.7642 3.99392V4.85374C64.7642 5.29136 64.4095 5.64612 63.9719 5.64612C63.3537 5.64612 62.8535 5.8372 62.4714 6.21934C62.0892 6.59024 61.8982 7.1185 61.8982 7.8041V11.4963C61.8982 12.1946 61.3321 12.7607 60.6337 12.7607Z" fill="#8952C7"/>
  <path d="M2.15448 31.6075C1.45615 31.6075 0.890037 31.0414 0.890037 30.3431V23.5825C0.890037 22.9307 1.41841 22.4024 2.07018 22.4024H2.81274C3.05441 22.4024 3.25033 22.5983 3.25033 22.84V24.2806C3.25033 24.3658 3.13616 24.394 3.09647 24.3186C3.08699 24.3006 3.08459 24.2795 3.08986 24.2599C3.29287 23.5013 3.62172 22.9889 4.07643 22.7227C4.54848 22.4417 5.10484 22.3012 5.74549 22.3012C6.04344 22.3012 6.28498 22.5428 6.28498 22.8407V23.7005C6.28498 24.1381 5.93022 24.4929 5.4926 24.4929C4.87443 24.4929 4.37427 24.684 3.99213 25.0661C3.60999 25.437 3.41892 25.9653 3.41892 26.6509V30.3431C3.41892 31.0414 2.85281 31.6075 2.15448 31.6075Z" fill="#8952C7"/>
  <path d="M11.8273 31.8098C10.8495 31.8098 10.0009 31.5963 9.28158 31.1692C8.56225 30.7308 8.0059 30.1464 7.61251 29.4158C7.21913 28.6852 7.02244 27.876 7.02244 26.9881C7.02244 26.0664 7.22475 25.246 7.62937 24.5266C8.04523 23.8073 8.60159 23.2397 9.29844 22.8238C9.99528 22.408 10.782 22.2001 11.6587 22.2001C12.3893 22.2001 13.0356 22.3181 13.5975 22.5541C14.1595 22.7789 14.6316 23.0992 15.0137 23.5151C15.4071 23.9309 15.7049 24.4142 15.9072 24.965C16.1096 25.5045 16.2107 26.0945 16.2107 26.7352C16.2107 26.915 16.1995 27.0949 16.177 27.2747C16.1591 27.5429 15.9137 27.713 15.6449 27.713H10.1245C9.61243 27.713 9.19728 27.2979 9.19728 26.7858C9.19728 26.2737 9.61243 25.8585 10.1245 25.8585H13.8713C14.1205 25.8585 14.2247 26.1771 14.0236 26.3243C13.8307 26.4657 13.5464 26.2853 13.5426 26.0462C13.5393 25.835 13.507 25.6375 13.4458 25.4539C13.3222 25.0717 13.103 24.7739 12.7883 24.5603C12.4848 24.3356 12.1083 24.2232 11.6587 24.2232C11.2204 24.2232 10.8439 24.3299 10.5292 24.5435C10.2145 24.757 9.97842 25.0717 9.82107 25.4876C9.76426 25.6377 9.71991 25.7996 9.688 25.9732C9.56337 26.6512 9.53453 27.3654 9.70648 28.033C9.73665 28.1502 9.77485 28.2627 9.82107 28.3705C9.98966 28.7639 10.2482 29.073 10.5966 29.2978C10.945 29.5113 11.3665 29.6181 11.861 29.6181C12.3106 29.6181 12.6928 29.5282 13.0075 29.3484C13.5383 29.0555 14.1893 28.8076 14.737 29.0677L14.7712 29.084C15.3435 29.3558 15.618 30.0493 15.1816 30.5086C15.103 30.5912 15.019 30.6709 14.9294 30.7477C14.5473 31.0849 14.0921 31.349 13.5638 31.5401C13.0356 31.7199 12.4567 31.8098 11.8273 31.8098Z" fill="#8952C7"/>
  <path d="M20.5491 31.8098C19.8859 31.8098 19.3127 31.703 18.8294 31.4895C18.3461 31.2759 17.9752 30.9725 17.7167 30.5791C17.4582 30.1745 17.3289 29.6968 17.3289 29.1461C17.3289 28.629 17.447 28.1738 17.683 27.7805C17.919 27.3758 18.2787 27.0387 18.762 26.7689C19.2565 26.4992 19.8691 26.3081 20.5996 26.1957L22.3462 25.9133C22.9067 25.8227 23.4151 26.2555 23.4151 26.8233C23.4151 27.2698 23.095 27.6522 22.6554 27.7307L21.0548 28.0165C20.6952 28.0839 20.4198 28.2019 20.2287 28.3705C20.0377 28.5279 19.9421 28.7583 19.9421 29.0618C19.9421 29.3427 20.0489 29.5619 20.2624 29.7193C20.476 29.8766 20.7401 29.9553 21.0548 29.9553C21.4707 29.9553 21.836 29.8654 22.1507 29.6855C22.4654 29.5057 22.707 29.2641 22.8756 28.9606C23.0555 28.6459 23.1454 28.3031 23.1454 27.9322V25.5382C23.1454 25.1898 23.0049 24.8975 22.7239 24.6615C22.4541 24.4255 22.0832 24.3075 21.6112 24.3075C21.1616 24.3075 20.7626 24.4311 20.4142 24.6784C20.4079 24.683 20.4017 24.6876 20.3955 24.6922C19.8676 25.0878 19.1651 25.4152 18.5693 25.1322C18.0458 24.8836 17.7759 24.2624 18.1219 23.7975C18.2368 23.6431 18.3659 23.4984 18.5091 23.3633C18.9025 22.9924 19.3745 22.7058 19.9253 22.5035C20.476 22.3012 21.0773 22.2001 21.7292 22.2001C22.5047 22.2001 23.1903 22.3406 23.786 22.6215C24.3817 22.9025 24.8425 23.2959 25.1685 23.8017C25.5057 24.2962 25.6743 24.8751 25.6743 25.5382V30.4274C25.6743 31.0791 25.1459 31.6075 24.4941 31.6075H24.1207C23.6752 31.6075 23.314 31.2463 23.314 30.8007V30.2776C23.314 30.1887 23.3778 30.1126 23.4653 30.0972C23.624 30.0692 23.7358 30.243 23.636 30.3697C23.4356 30.6242 23.2215 30.8457 22.9936 31.0343C22.6677 31.2928 22.3024 31.4839 21.8978 31.6075C21.4932 31.7424 21.0436 31.8098 20.5491 31.8098Z" fill="#8952C7"/>
  <path d="M31.8617 31.8098C30.9626 31.8098 30.1589 31.5963 29.4508 31.1692C28.7428 30.7421 28.1808 30.1632 27.7649 29.4327C27.3603 28.7021 27.158 27.8929 27.158 27.0049C27.158 26.1058 27.3659 25.2965 27.7818 24.5772C28.1976 23.8466 28.7596 23.2678 29.4677 22.8407C30.1758 22.4136 30.9682 22.2001 31.8449 22.2001C32.5192 22.2001 33.1149 22.3293 33.6319 22.5878C34.1205 22.8165 34.513 23.1366 34.8092 23.5479C34.8526 23.6081 34.8493 23.6894 34.8041 23.7483C34.7029 23.8804 34.4918 23.8087 34.4918 23.6423V20.1095C34.4918 19.4112 35.0579 18.8451 35.7562 18.8451C36.4545 18.8451 37.0206 19.4112 37.0206 20.1095V30.4274C37.0206 31.0791 36.4923 31.6075 35.8405 31.6075H34.9591C34.7941 31.6075 34.6603 31.4738 34.6603 31.3088V30.4324C34.6603 30.314 34.8218 30.2792 34.8706 30.3871C34.8866 30.4225 34.8829 30.4638 34.8599 30.4951C34.549 30.9198 34.134 31.2456 33.6151 31.4726C33.0756 31.6974 32.4911 31.8098 31.8617 31.8098ZM32.1652 29.5338C32.626 29.5338 33.0306 29.427 33.379 29.2135C33.7275 28.9999 33.9972 28.7021 34.1883 28.32C34.3906 27.9378 34.4918 27.4995 34.4918 27.0049C34.4918 26.5104 34.3906 26.0721 34.1883 25.6899C33.9972 25.3078 33.7275 25.0099 33.379 24.7964C33.0306 24.5828 32.626 24.4761 32.1652 24.4761C31.7044 24.4761 31.2885 24.5884 30.9176 24.8132C30.5579 25.0268 30.277 25.3246 30.0746 25.7068C29.8723 26.0777 29.7712 26.5104 29.7712 27.0049C29.7712 27.4995 29.8723 27.9378 30.0746 28.32C30.277 28.7021 30.5579 28.9999 30.9176 29.2135C31.2885 29.427 31.7044 29.5338 32.1652 29.5338Z" fill="#8952C7"/>
  <path d="M43.3066 31.8098C42.3288 31.8098 41.4802 31.5963 40.7609 31.1692C40.0415 30.7308 39.4852 30.1464 39.0918 29.4158C38.6984 28.6852 38.5017 27.876 38.5017 26.9881C38.5017 26.0664 38.7041 25.246 39.1087 24.5266C39.5245 23.8073 40.0809 23.2397 40.7777 22.8238C41.4746 22.408 42.2613 22.2001 43.138 22.2001C43.8686 22.2001 44.5149 22.3181 45.0768 22.5541C45.6388 22.7789 46.1109 23.0992 46.493 23.5151C46.8864 23.9309 47.1842 24.4142 47.3865 24.965C47.5889 25.5045 47.69 26.0945 47.69 26.7352C47.69 26.915 47.6788 27.0949 47.6563 27.2747C47.6384 27.5429 47.393 27.713 47.1242 27.713H41.6038C41.0917 27.713 40.6766 27.2979 40.6766 26.7858C40.6766 26.2737 41.0917 25.8585 41.6038 25.8585H45.3506C45.5998 25.8585 45.704 26.1771 45.5029 26.3243C45.31 26.4657 45.0257 26.2853 45.0219 26.0462C45.0186 25.835 44.9863 25.6375 44.9251 25.4539C44.8015 25.0717 44.5823 24.7739 44.2676 24.5603C43.9641 24.3356 43.5876 24.2232 43.138 24.2232C42.6997 24.2232 42.3232 24.3299 42.0085 24.5435C41.6938 24.757 41.4577 25.0717 41.3004 25.4876C41.2436 25.6377 41.1992 25.7996 41.1673 25.9732C41.0427 26.6512 41.0138 27.3654 41.1858 28.033C41.216 28.1502 41.2542 28.2627 41.3004 28.3705C41.469 28.7639 41.7275 29.073 42.0759 29.2978C42.4243 29.5113 42.8458 29.6181 43.3403 29.6181C43.7899 29.6181 44.1721 29.5282 44.4868 29.3484C45.0176 29.0555 45.6686 28.8076 46.2163 29.0677L46.2505 29.084C46.8228 29.3558 47.0973 30.0493 46.6609 30.5086C46.5823 30.5912 46.4983 30.6709 46.4087 30.7477C46.0266 31.0849 45.5714 31.349 45.0431 31.5401C44.5149 31.7199 43.936 31.8098 43.3066 31.8098Z" fill="#8952C7"/>
  <path d="M50.4436 31.6075C49.7453 31.6075 49.1792 31.0414 49.1792 30.3431V23.5825C49.1792 22.9307 49.7075 22.4024 50.3593 22.4024H51.1019C51.3435 22.4024 51.5394 22.5983 51.5394 22.84V24.2806C51.5394 24.3658 51.4253 24.394 51.3856 24.3186C51.3761 24.3006 51.3737 24.2795 51.379 24.2599C51.582 23.5013 51.9108 22.9889 52.3655 22.7227C52.8376 22.4417 53.394 22.3012 54.0346 22.3012C54.3326 22.3012 54.5741 22.5428 54.5741 22.8407V23.7005C54.5741 24.1382 54.2193 24.4929 53.7817 24.4929C53.1636 24.4929 52.6634 24.684 52.2813 25.0661C51.8991 25.437 51.708 25.9653 51.708 26.6509V30.3431C51.708 31.0414 51.1419 31.6075 50.4436 31.6075Z" fill="#8952C7"/>
</svg>