<svg width="140" height="140" viewBox="0 0 140 140" fill="none" xmlns="http://www.w3.org/2000/svg">
<g id="Frame 29">
<path id="Rectangle 19" d="M0 8C0 3.58172 3.58172 0 8 0L132 0C136.418 0 140 3.58172 140 8V132C140 136.418 136.418 140 132 140H8C3.58172 140 0 136.418 0 132L0 8Z" fill="#8952C7"/>
<g id="attach_money" filter="url(#filter0_d_788_146)">
<mask id="mask0_788_146" style="mask-type:alpha" maskUnits="userSpaceOnUse" x="21" y="17" width="99" height="99">
<rect id="Bounding box" x="21.0127" y="17.9214" width="98" height="98" fill="#FED132"/>
</mask>
<g mask="url(#mask0_788_146)">
<path id="attach_money_2" d="M64.897 103.671V104.807H66.0324H74.1991H75.3345V103.671V96.0606C79.3263 95.3293 82.7495 93.7339 85.5663 91.2525C88.7319 88.4637 90.2387 84.4396 90.2387 79.3755C90.2387 75.239 88.9431 71.5647 86.359 68.3982C83.7614 65.2152 79.9831 62.9507 75.1277 61.5433L75.1216 61.5415C70.0976 60.1158 66.6956 58.7903 64.8024 57.5913C63.0595 56.4874 62.2678 55.0647 62.2678 53.2422C62.2678 51.6171 62.8922 50.2784 64.2146 49.1572C65.4985 48.0686 67.4739 47.4359 70.3199 47.4359C72.7587 47.4359 74.5374 47.9505 75.7771 48.8521C77.0534 49.7803 78.094 51.2096 78.8526 53.2325L79.2715 54.3495L80.3664 53.876L87.9206 50.6093L88.9046 50.1838L88.5362 49.177C87.4507 46.2099 85.7259 43.685 83.3696 41.6187C81.1879 39.7055 78.4956 38.4421 75.3345 37.7986V30.1713V29.0359H74.1991H66.0324H64.897V30.1713V37.7696C61.9894 38.3141 59.1939 39.7729 56.5143 42.0697C53.3594 44.7739 51.8303 48.5512 51.8303 53.2422C51.8303 57.1596 52.9984 60.5421 55.3687 63.3198C57.7576 66.1193 62.0237 68.393 67.9326 70.2487C70.6296 71.1254 72.8126 71.9477 74.4937 72.7141C76.1965 73.4904 77.3042 74.174 77.9167 74.7447C79.1451 75.8894 79.8011 77.4563 79.8011 79.5797C79.8011 81.9158 78.9739 83.4813 77.409 84.4971C75.6885 85.6139 73.5491 86.2026 70.9324 86.2026C67.8675 86.2026 65.5116 85.4083 63.755 83.9197C61.9542 82.3935 60.5376 80.1171 59.562 76.9952L59.1942 75.8184L58.0517 76.2816L50.4975 79.3441L49.548 79.729L49.8337 80.7129C51.1033 85.0862 53.122 88.5586 55.9402 91.0474C58.4931 93.3019 61.485 94.8786 64.897 95.7824V103.671Z" fill="#FED132" stroke="#14383D" stroke-width="2.27086"/>
</g>
</g>
</g>
<defs>
<filter id="filter0_d_788_146" x="48.1719" y="27.9005" width="43.2021" height="82.0417" filterUnits="userSpaceOnUse" color-interpolation-filters="sRGB">
<feFlood flood-opacity="0" result="BackgroundImageFix"/>
<feColorMatrix in="SourceAlpha" type="matrix" values="0 0 0 0 0 0 0 0 0 0 0 0 0 0 0 0 0 0 127 0" result="hardAlpha"/>
<feOffset dy="4"/>
<feComposite in2="hardAlpha" operator="out"/>
<feColorMatrix type="matrix" values="0 0 0 0 0.0784314 0 0 0 0 0.219608 0 0 0 0 0.239216 0 0 0 1 0"/>
<feBlend mode="normal" in2="BackgroundImageFix" result="effect1_dropShadow_788_146"/>
<feBlend mode="normal" in="SourceGraphic" in2="effect1_dropShadow_788_146" result="shape"/>
</filter>
</defs>
</svg>
