<svg width="140" height="140" viewBox="0 0 140 140" fill="none" xmlns="http://www.w3.org/2000/svg">
<g id="Frame 28">
<rect id="Rectangle 20" width="140" height="140" rx="8" fill="#8952C7"/>
<g id="keyboard_alt">
<mask id="mask0_788_151" style="mask-type:alpha" maskUnits="userSpaceOnUse" x="20" y="20" width="100" height="100">
<rect id="Bounding box" x="20.5" y="20.5" width="99" height="99" fill="#D9D9D9" stroke="#FED132"/>
</mask>
<g mask="url(#mask0_788_151)">
<g id="keyboard_alt_2" filter="url(#filter0_d_788_151)">
<path d="M36.6287 102.844C34.5308 102.844 32.7349 102.097 31.2409 100.603C29.747 99.1093 29 97.3134 29 95.2155L29 45.6287C29 43.5308 29.747 41.7349 31.2409 40.2409C32.7349 38.747 34.5308 38 36.6287 38L105.287 38C107.385 38 109.181 38.747 110.675 40.2409C112.169 41.7349 112.916 43.5308 112.916 45.6287V95.2155C112.916 97.3134 112.169 99.1093 110.675 100.603C109.181 102.097 107.385 102.844 105.287 102.844H36.6287ZM55.7006 87.5867H86.2155V83.7724H55.7006V87.5867ZM44.2575 76.1436H51.8862V68.5149H44.2575V76.1436ZM59.5149 76.1436H67.1436V68.5149H59.5149V76.1436ZM74.7724 76.1436H82.4011V68.5149H74.7724V76.1436ZM90.0298 76.1436H97.6586V68.5149H90.0298V76.1436ZM44.2575 60.8862H51.8862V53.2575H44.2575V60.8862ZM59.5149 60.8862H67.1436V53.2575H59.5149V60.8862ZM74.7724 60.8862H82.4011V53.2575L74.7724 53.2575V60.8862ZM90.0298 60.8862L97.6586 60.8862V53.2575H90.0298V60.8862Z" fill="#FED132"/>
<path d="M30.4384 101.406C32.1435 103.111 34.2274 103.979 36.6287 103.979H105.287C107.689 103.979 109.773 103.111 111.478 101.406C113.183 99.7007 114.051 97.6168 114.051 95.2155V45.6287C114.051 43.2274 113.183 41.1435 111.478 39.4384C109.773 37.7333 107.689 36.865 105.287 36.865L36.6287 36.865C34.2274 36.865 32.1435 37.7333 30.4384 39.4384C28.7333 41.1435 27.865 43.2274 27.865 45.6287L27.865 95.2155C27.865 97.6168 28.7333 99.7007 30.4384 101.406ZM85.0805 84.9074V86.4517H56.8356V84.9074H85.0805ZM50.7512 69.6499V75.0086H45.3925V69.6499H50.7512ZM66.0086 69.6499V75.0086H60.6499V69.6499H66.0086ZM81.2661 69.6499V75.0086H75.9074V69.6499H81.2661ZM96.5236 69.6499V75.0086H91.1648V69.6499H96.5236ZM50.7512 54.3925V59.7512H45.3925V54.3925H50.7512ZM66.0086 54.3925V59.7512H60.6499V54.3925H66.0086ZM81.2661 54.3925V59.7512H75.9074V54.3925H81.2661ZM96.5236 54.3925V59.7512L91.1648 59.7512V54.3925L96.5236 54.3925Z" stroke="#14383D" stroke-width="2.27"/>
</g>
</g>
</g>
</g>
<defs>
<filter id="filter0_d_788_151" x="26.73" y="35.73" width="88.4561" height="73.3842" filterUnits="userSpaceOnUse" color-interpolation-filters="sRGB">
<feFlood flood-opacity="0" result="BackgroundImageFix"/>
<feColorMatrix in="SourceAlpha" type="matrix" values="0 0 0 0 0 0 0 0 0 0 0 0 0 0 0 0 0 0 127 0" result="hardAlpha"/>
<feOffset dy="4"/>
<feComposite in2="hardAlpha" operator="out"/>
<feColorMatrix type="matrix" values="0 0 0 0 0.0784314 0 0 0 0 0.219608 0 0 0 0 0.239216 0 0 0 1 0"/>
<feBlend mode="normal" in2="BackgroundImageFix" result="effect1_dropShadow_788_151"/>
<feBlend mode="normal" in="SourceGraphic" in2="effect1_dropShadow_788_151" result="shape"/>
</filter>
</defs>
</svg>
