<svg width="314" height="387" viewBox="0 0 314 387" fill="none" xmlns="http://www.w3.org/2000/svg">
<path fill-rule="evenodd" clip-rule="evenodd" d="M236 20C236 8.9543 244.954 0 256 0H263C263.847 0 264.681 0.0526084 265.5 0.154735C266.319 0.0526084 267.153 0 268 0H294C305.046 0 314 8.95431 314 20V27C314 38.0457 305.046 47 294 47H283V184.104C290.09 201.336 294 220.211 294 240C294 321.186 228.186 387 147 387C65.8141 387 0 321.186 0 240C0 158.814 65.8141 93 147 93C180.453 93 211.296 104.174 236 122.994V20Z" fill="#8952C7"/>
<path fill-rule="evenodd" clip-rule="evenodd" d="M56 158C30.0426 158 9 179.043 9 205V208C9 233.957 30.0426 255 56 255C79.5786 255 99.102 237.637 102.482 215H116.376C119.49 223.176 127.549 229 137 229C146.451 229 154.51 223.176 157.624 215H168.518C171.898 237.637 191.421 255 215 255C240.957 255 262 233.957 262 208V205C262 179.043 240.957 158 215 158C190.732 158 170.759 176.393 168.263 200H157.624C154.51 191.824 146.451 186 137 186C127.549 186 119.49 191.824 116.376 200H102.737C100.241 176.393 80.2684 158 56 158ZM185 293.5C185 319.181 163.957 340 138 340C112.043 340 91 319.181 91 293.5C91 267.819 112.043 247 138 247C163.957 247 185 267.819 185 293.5Z" fill="white"/>
<circle cx="51" cy="198" r="27" fill="black"/>
<circle cx="206" cy="198" r="27" fill="black"/>
<path d="M160 283C160 285.889 159.431 288.75 158.325 291.419C157.22 294.088 155.599 296.513 153.556 298.556C151.513 300.599 149.088 302.22 146.419 303.325C143.75 304.431 140.889 305 138 305C135.111 305 132.25 304.431 129.581 303.325C126.912 302.22 124.487 300.599 122.444 298.556C120.401 296.513 118.78 294.088 117.675 291.419C116.569 288.75 116 285.889 116 283" stroke="black" stroke-width="13"/>
</svg>
