<svg width="140" height="140" viewBox="0 0 140 140" fill="none" xmlns="http://www.w3.org/2000/svg">
<g id="Frame 27">
<rect id="Rectangle 21" width="140" height="140" rx="8" fill="#8952C7"/>
<g id="school" filter="url(#filter0_d_788_156)">
<mask id="mask0_788_156" style="mask-type:alpha" maskUnits="userSpaceOnUse" x="25" y="25" width="90" height="90">
<rect id="Bounding box" x="25" y="25" width="90" height="90" fill="#D9D9D9"/>
</mask>
<g mask="url(#mask0_788_156)">
<path id="school_2" d="M107.673 87.365C106.272 87.365 105.135 86.2285 105.135 84.8265V68.8076C105.135 65.1594 101.231 62.84 98.0273 64.5845L71.4654 79.0459C70.7081 79.4583 69.7931 79.4579 69.0361 79.045L35.4559 60.7285C33.692 59.7664 33.692 57.2336 35.4559 56.2715L69.0344 37.9559C69.7921 37.5426 70.7079 37.5426 71.4655 37.9559L109.042 58.4522C109.858 58.897 110.365 59.7518 110.365 60.6807V84.8265C110.365 86.2285 109.228 87.365 107.827 87.365H107.673ZM71.4611 101.551C70.7058 101.961 69.7942 101.961 69.0389 101.551L46.4624 89.2953C45.6444 88.8512 45.135 87.9951 45.135 87.0643V76.674C45.135 74.7494 47.1931 73.5249 48.8846 74.4431L67.9559 84.7961C69.3867 85.5728 71.1133 85.5728 72.5441 84.7961L91.6155 74.4431C93.3069 73.5249 95.365 74.7494 95.365 76.674V87.0643C95.365 87.9951 94.8556 88.8512 94.0376 89.2953L71.4611 101.551Z" fill="#FED132" stroke="#14383D" stroke-width="2.27" stroke-linejoin="round"/>
</g>
</g>
</g>
<defs>
<filter id="filter0_d_788_156" x="32.998" y="36.5109" width="81.502" height="71.4827" filterUnits="userSpaceOnUse" color-interpolation-filters="sRGB">
<feFlood flood-opacity="0" result="BackgroundImageFix"/>
<feColorMatrix in="SourceAlpha" type="matrix" values="0 0 0 0 0 0 0 0 0 0 0 0 0 0 0 0 0 0 127 0" result="hardAlpha"/>
<feOffset dx="3" dy="5"/>
<feComposite in2="hardAlpha" operator="out"/>
<feColorMatrix type="matrix" values="0 0 0 0 0.0784314 0 0 0 0 0.219608 0 0 0 0 0.239216 0 0 0 1 0"/>
<feBlend mode="normal" in2="BackgroundImageFix" result="effect1_dropShadow_788_156"/>
<feBlend mode="normal" in="SourceGraphic" in2="effect1_dropShadow_788_156" result="shape"/>
</filter>
</defs>
</svg>
